<svg xmlns="http://www.w3.org/2000/svg" width="680" height="100" viewBox="0 0 680 100">
  <defs>
    <linearGradient id="fade"><stop stop-color="white" stop-opacity="0"/><stop offset=".48" stop-color="white" stop-opacity=".65"/><stop offset="1" stop-color="white"/></linearGradient>
    <linearGradient id="ribbon" x1="0" y1="0" x2="0" y2="1">
      <stop stop-color="#a9d260" stop-opacity=".28"/>
      <stop offset=".48" stop-color="#65a449" stop-opacity=".14"/>
      <stop offset="1" stop-color="#284b37" stop-opacity=".04"/>
    </linearGradient>
    <linearGradient id="edge" x1="0" y1="0" x2="0" y2="1"><stop stop-color="#b7dd7b" stop-opacity=".35"/><stop offset="1" stop-color="#65a449" stop-opacity="0"/></linearGradient>
    <mask id="soft"><path fill="url(#fade)" d="M0 0h680v100H0z"/></mask>
  </defs>
  <g mask="url(#soft)">
    <path fill="url(#ribbon)" d="M190-20h90L160 120H70zM370-20h90L340 120h-90zM550-20h90L520 120h-90zM730-20h90L700 120h-90z"/>
    <path fill="#142d20" fill-opacity=".18" d="M280-20h14L174 120h-14zM460-20h14L354 120h-14zM640-20h14L534 120h-14z"/>
    <path fill="none" stroke="url(#edge)" stroke-width="1.5" d="M190-20L70 120M370-20L250 120M550-20L430 120M730-20L610 120"/>
  </g>
</svg>
